<svg xmlns="http://www.w3.org/2000/svg" viewBox="0 0 60 68" width="60" height="68" role="img" aria-label="WhatsApp">
  <defs>
    <filter id="wa-shadow" x="-20%" y="-15%" width="140%" height="145%">
      <feDropShadow dx="0" dy="3" stdDeviation="3" flood-color="#000000" flood-opacity="0.38"/>
    </filter>
  </defs>
  <g filter="url(#wa-shadow)">
    <circle cx="30" cy="28" r="28" fill="#FFFFFF"/>
    <path fill="#FFFFFF" d="M9 46 L3 58 L17 49 Z"/>
    <circle cx="30" cy="28" r="22" fill="#25D366"/>
    <path
      fill="#FFFFFF"
      transform="translate(30 28) scale(1.05) translate(-12 -12)"
      d="M6.62 10.79c1.44 2.83 3.76 5.14 6.59 6.59l2.2-2.2c.27-.27.67-.36 1.02-.24 1.12.37 2.33.57 3.57.57.55 0 1 .45 1 1V20c0 .55-.45 1-1 1-9.39 0-17-7.61-17-17 0-.55.45-1 1-1h3.5c.55 0 1 .45 1 1 0 1.25.2 2.45.57 3.57.11.35.03.74-.25 1.02l-2.2 2.2z"
    />
  </g>
</svg>
